<svg width="453" height="463" viewBox="0 0 453 463" fill="none" xmlns="http://www.w3.org/2000/svg">
<path d="M303.834 345.856C302.469 344.343 305.687 335.508 320.959 334.883C336.23 334.257 342.348 339.818 342.37 345.856C342.382 348.528 303.834 345.856 303.834 345.856Z" fill="#455A64"/>
<path d="M296.295 114.706L279.329 219.626H434.271L452.942 113.58L296.295 114.706Z" fill="#F5F5F5"/>
<path d="M294.748 124.246C294.817 123.882 451.168 123.655 451.168 123.655L452.942 113.58L296.295 114.717L294.748 124.269" fill="#E0E0E0"/>
<path d="M302.845 119.424C302.847 119.711 302.764 119.991 302.607 120.23C302.449 120.469 302.225 120.656 301.961 120.767C301.697 120.878 301.407 120.908 301.126 120.854C300.845 120.799 300.587 120.663 300.383 120.461C300.18 120.26 300.042 120.002 299.985 119.722C299.928 119.441 299.956 119.15 300.065 118.886C300.174 118.621 300.359 118.395 300.597 118.236C300.835 118.077 301.114 117.992 301.4 117.992C301.59 117.99 301.777 118.026 301.952 118.098C302.127 118.169 302.287 118.274 302.421 118.407C302.555 118.541 302.662 118.699 302.734 118.874C302.807 119.048 302.845 119.235 302.845 119.424Z" fill="#263238"/>
<path d="M309.895 119.425C309.895 119.708 309.811 119.985 309.653 120.221C309.496 120.456 309.272 120.64 309.01 120.748C308.748 120.857 308.46 120.885 308.182 120.83C307.904 120.774 307.649 120.638 307.449 120.438C307.248 120.237 307.112 119.982 307.057 119.704C307.001 119.426 307.03 119.138 307.138 118.876C307.247 118.614 307.43 118.391 307.666 118.233C307.902 118.076 308.179 117.992 308.462 117.992C308.842 117.992 309.206 118.143 309.475 118.411C309.744 118.68 309.895 119.045 309.895 119.425Z" fill="#263238"/>
<path d="M316.956 119.424C316.958 119.711 316.876 119.991 316.718 120.23C316.561 120.469 316.336 120.656 316.073 120.767C315.809 120.878 315.518 120.908 315.237 120.854C314.956 120.799 314.698 120.663 314.495 120.461C314.292 120.26 314.153 120.002 314.096 119.722C314.04 119.441 314.068 119.15 314.177 118.886C314.286 118.621 314.471 118.395 314.708 118.236C314.946 118.077 315.226 117.992 315.512 117.992C315.701 117.99 315.889 118.026 316.064 118.098C316.239 118.169 316.398 118.274 316.532 118.407C316.667 118.541 316.773 118.699 316.846 118.874C316.919 119.048 316.956 119.235 316.956 119.424V119.424Z" fill="#263238"/>
<path d="M334.456 171.379L315.068 193.802C311.408 191.319 308.4 187.989 306.299 184.095C304.199 180.202 303.069 175.859 303.004 171.436C303.004 155.846 317.206 143.008 334.456 143.008C351.706 143.008 365.908 155.835 365.908 171.436L334.456 171.379Z" fill="#6952DC"/>
<path d="M336.946 174.938C336.852 175.097 336.741 175.245 336.617 175.381L335.605 176.587L331.761 181.135C328.418 185.047 323.665 190.573 317.968 197.225V196.861C322.263 199.818 327.225 201.662 332.409 202.228C338.261 202.903 344.188 202.008 349.58 199.636C354.726 197.4 359.17 193.813 362.44 189.254C363.914 187.128 365.095 184.814 365.954 182.374C366.703 180.095 367.157 177.73 367.307 175.336L367.557 175.597L345.384 175.222L339.152 175.086L337.504 175.029C337.311 175.047 337.116 175.047 336.924 175.029C337.105 175.011 337.288 175.011 337.469 175.029H339.095H345.293L367.557 175.177H367.83V175.45C367.701 177.897 367.25 180.317 366.488 182.647C365.625 185.14 364.427 187.504 362.929 189.675C359.599 194.355 355.048 198.033 349.773 200.307C344.281 202.709 338.25 203.612 332.296 202.922C327.024 202.324 321.983 200.425 317.627 197.396L317.4 197.236L317.581 197.02L331.613 181.021L335.536 176.587L336.582 175.45C336.689 175.269 336.81 175.097 336.946 174.938V174.938Z" fill="#263238"/>
<path d="M347.828 156.255C348.802 156.255 349.591 155.466 349.591 154.493C349.591 153.519 348.802 152.73 347.828 152.73C346.855 152.73 346.066 153.519 346.066 154.493C346.066 155.466 346.855 156.255 347.828 156.255Z" fill="#263238"/>
<path d="M384.602 141.598C384.053 141.683 383.498 141.721 382.942 141.712L378.394 141.803C374.584 141.803 369.297 141.894 363.509 141.894H360.734L360.939 141.814C357.289 145.453 354.037 148.637 351.683 150.911L348.897 153.572C348.579 153.917 348.22 154.223 347.828 154.481C348.104 154.103 348.413 153.749 348.749 153.424C349.443 152.685 350.341 151.752 351.41 150.638C353.684 148.284 356.891 145.032 360.507 141.371L360.587 141.291H363.577C369.388 141.291 374.653 141.291 378.462 141.371L383.01 141.473C383.544 141.464 384.077 141.506 384.602 141.598V141.598Z" fill="#263238"/>
<path d="M424.537 163.749C424.545 163.546 424.571 163.344 424.617 163.146C424.685 162.737 424.776 162.18 424.901 161.463L426.038 155.107L430.143 132.297L430.382 132.581L386.342 132.638L386.626 132.399V132.513V132.649V132.911L386.524 133.434L386.331 134.491L385.944 136.583C385.682 137.971 385.432 139.347 385.171 140.711C384.67 143.44 384.174 146.124 383.681 148.762C382.692 154.015 381.748 158.996 380.873 163.783L380.6 163.465L412.325 163.59L421.422 163.669H423.844H424.469H424.696H424.503H423.9H421.524L412.518 163.737L380.679 163.862H380.361L380.418 163.544C381.293 158.802 382.214 153.765 383.192 148.5C383.67 145.874 384.17 143.19 384.67 140.461C384.932 139.085 385.182 137.709 385.444 136.322C385.569 135.628 385.694 134.935 385.83 134.23L386.024 133.183L386.115 132.66L386.171 132.387V132.262V132.16L386.467 131.91L430.507 131.967H430.666L430.609 132.251C428.79 141.769 427.289 149.626 426.243 155.141C425.708 157.836 425.299 159.951 425.003 161.44L424.674 163.067C424.583 163.578 424.537 163.76 424.537 163.749Z" fill="#263238"/>
<path d="M350.592 191.71C351.565 191.71 352.354 190.921 352.354 189.948C352.354 188.974 351.565 188.185 350.592 188.185C349.618 188.185 348.829 188.974 348.829 189.948C348.829 190.921 349.618 191.71 350.592 191.71Z" fill="#263238"/>
<path d="M382.59 189.948C382.59 190.118 375.426 190.243 366.591 190.243C357.755 190.243 350.591 190.118 350.591 189.948C350.591 189.777 357.755 189.652 366.591 189.652C375.426 189.652 382.59 189.788 382.59 189.948Z" fill="#263238"/>
<path d="M424.537 203.684C424.551 203.538 424.578 203.393 424.617 203.252C424.685 202.945 424.776 202.535 424.901 202.024C425.163 200.886 425.538 199.374 426.038 197.396C427.028 193.37 428.438 187.628 430.177 180.566L430.393 180.839L384.978 180.908L385.262 180.692V180.76V180.851V181.044L385.159 181.431L384.966 182.181L384.591 183.705C384.329 184.706 384.079 185.706 383.829 186.707L382.214 192.665C381.236 196.52 380.293 200.25 379.383 203.809L379.121 203.468L411.699 203.593L421.115 203.661H423.639H424.299H424.537H424.333H423.696H421.228L411.859 203.729L379.121 203.854H378.758L378.849 203.502C379.747 199.943 380.679 196.202 381.646 192.347C382.131 190.414 382.628 188.454 383.135 186.468L383.886 183.466L384.273 181.954L384.466 181.192L384.557 180.805V180.623V180.521V180.453L384.841 180.225L430.257 180.305H430.666L430.598 180.578C428.756 187.673 427.266 193.438 426.22 197.475C425.697 199.42 425.288 200.955 425.004 202.024C424.867 202.513 424.765 202.899 424.685 203.161C424.606 203.422 424.537 203.695 424.537 203.684Z" fill="#263238"/>
<path d="M420.955 141.996C420.955 142.167 414.212 142.292 405.889 142.292C397.565 142.292 390.822 142.167 390.822 141.996C390.822 141.825 397.565 141.7 405.889 141.7C414.212 141.7 420.955 141.837 420.955 141.996Z" fill="#263238"/>
<path d="M420.603 146.931C420.603 147.102 413.78 147.227 405.457 147.227C397.133 147.227 390.299 147.102 390.299 146.931C390.299 146.76 397.122 146.635 405.457 146.635C413.792 146.635 420.603 146.772 420.603 146.931Z" fill="#263238"/>
<path d="M419.727 151.73C419.727 151.889 413.178 152.025 405.104 152.025C397.031 152.025 390.47 151.889 390.47 151.73C390.47 151.57 397.019 151.434 405.104 151.434C413.189 151.434 419.727 151.525 419.727 151.73Z" fill="#263238"/>
<path d="M420.25 189.402C420.25 189.561 413.826 189.697 405.889 189.697C397.952 189.697 391.527 189.561 391.527 189.402C391.527 189.243 397.963 189.106 405.889 189.106C413.814 189.106 420.25 189.254 420.25 189.402Z" fill="#263238"/>
<path d="M418.488 194.86C418.488 195.03 413.007 195.156 406.241 195.156C399.476 195.156 393.995 195.03 393.995 194.86C393.995 194.689 399.476 194.564 406.241 194.564C413.007 194.564 418.488 194.701 418.488 194.86Z" fill="#263238"/>
<path d="M235.471 309.105C234.925 312.3 219.756 345.867 229.547 345.867H278.761C278.761 345.867 273.678 341.091 289.063 309.105H235.471Z" fill="#455A64"/>
<path d="M203.632 197.066L183.517 314.62H353.184L373.993 192.938L203.632 197.066Z" fill="#455A64"/>
<path d="M209.398 202.797L192.443 307.729H347.374L366.045 201.682L209.398 202.797Z" fill="#FAFAFA"/>
<path d="M373.993 192.938L377.2 195.099L355.595 317.815H187.997L183.517 314.62H353.184L373.993 192.938Z" fill="#263238"/>
<path d="M207.862 212.349C207.919 211.973 364.271 211.757 364.271 211.757L366.045 201.682L209.398 202.82L207.862 212.371" fill="#EBEBEB"/>
<path d="M322.96 298.416V298.12L323.096 297.245C323.24 296.411 323.434 295.274 323.676 293.833C324.211 290.775 324.961 286.385 325.894 280.939C327.827 269.909 330.522 254.558 333.58 237.137V236.887H346.384L346.327 237.24C341.586 262.927 337.435 285.498 335.036 298.473V298.609H334.911L325.996 298.518H323.722H323.165H323.779H326.132L334.945 298.427L334.786 298.552L345.793 237.274L346.089 237.615H333.899L334.183 237.376C331.033 254.694 328.27 269.943 326.223 280.916C325.223 286.374 324.404 290.775 323.835 293.845C323.551 295.334 323.335 296.506 323.176 297.347C323.096 297.722 323.039 298.029 322.994 298.257C322.985 298.31 322.973 298.363 322.96 298.416V298.416Z" fill="#263238"/>
<path d="M303.311 298.416C303.326 298.139 303.368 297.865 303.436 297.597C303.538 296.994 303.686 296.187 303.868 295.164C304.277 292.969 304.846 289.865 305.562 286.067C307.052 278.187 309.133 267.225 311.509 254.694V254.455H324.313L324.245 254.808C320.652 272.626 317.422 288.466 315.421 298.507V298.655H315.273L306.37 298.552H304.095C303.842 298.569 303.587 298.569 303.334 298.552H304.175H306.54L315.319 298.45L315.137 298.598C317.115 288.546 320.231 272.695 323.733 254.853L324.017 255.206H311.759L312.044 254.978C309.576 267.396 307.416 278.266 305.858 286.078C305.073 289.956 304.448 293.071 303.993 295.266L303.481 297.756C303.481 298.018 303.368 298.234 303.334 298.404L303.311 298.416Z" fill="#263238"/>
<path d="M283.582 298.416C283.572 298.295 283.572 298.173 283.582 298.052L283.764 296.915C283.935 295.914 284.173 294.481 284.492 292.639C285.151 288.876 286.095 283.452 287.278 276.72C289.688 263.075 293.043 244.187 296.841 222.776V222.537H309.645L309.588 222.878C303.652 255.388 298.41 283.713 295.635 298.416V298.541H295.51L286.561 298.45H284.287H283.537H284.344H286.675L295.522 298.37L295.385 298.484C297.978 283.702 303.095 255.399 309.03 222.901L309.326 223.253H297.171L297.455 223.003C293.577 244.301 290.143 263.131 287.664 276.674C286.413 283.429 285.39 288.875 284.708 292.651L283.889 296.983C283.798 297.461 283.73 297.836 283.673 298.12L283.582 298.416Z" fill="#263238"/>
<path d="M263.887 298.416C263.896 298.225 263.919 298.035 263.956 297.847C264.035 297.404 264.126 296.847 264.24 296.142C264.501 294.572 264.877 292.389 265.377 289.672C266.366 284.043 267.742 276.231 269.323 267.202V266.964H282.115L282.047 267.316C279.693 279.597 277.578 290.649 276.077 298.461V298.632H275.918L267.049 298.518L264.649 298.416C264.388 298.432 264.126 298.432 263.865 298.416H264.729H267.128L275.861 298.302L275.656 298.461C277.112 290.649 279.17 279.574 281.444 267.282L281.74 267.634H269.562L269.834 267.407C268.152 276.333 266.707 284.054 265.65 289.615C265.127 292.344 264.695 294.55 264.388 296.13C264.24 296.847 264.126 297.438 264.035 297.881C263.996 298.062 263.947 298.241 263.887 298.416V298.416Z" fill="#263238"/>
<path d="M244.181 298.416C244.181 298.416 244.181 298.336 244.181 298.177C244.181 298.018 244.181 297.734 244.284 297.438C244.398 296.744 244.545 295.789 244.739 294.561C245.159 292.003 245.751 288.341 246.49 283.793C248.036 274.537 250.174 261.665 252.619 247.007V246.769H265.423L265.354 247.121C261.602 268.305 258.293 287.033 256.258 298.45V298.598H256.121L247.229 298.495H244.898C244.644 298.512 244.39 298.512 244.136 298.495H244.352H244.966H247.331L256.121 298.404L255.951 298.541L264.797 247.167L265.093 247.519H252.96L253.244 247.28C250.708 261.835 248.48 274.571 246.876 283.793C246.058 288.341 245.41 292.037 244.943 294.618C244.716 295.857 244.545 296.892 244.409 297.54L244.261 298.313L244.181 298.416Z" fill="#263238"/>
<path d="M224.51 298.416C224.495 298.306 224.495 298.195 224.51 298.086C224.51 297.836 224.6 297.506 224.669 297.085C224.828 296.164 225.044 294.811 225.328 293.174C225.908 289.762 226.761 284.771 227.807 278.607C229.968 266.156 232.981 248.827 236.392 229.212V228.973H249.196L249.139 229.325C243.84 258.799 239.155 284.566 236.574 298.45V298.575H236.449L227.523 298.484H225.249H224.703H225.306H227.637L236.472 298.393L236.324 298.518C238.735 284.6 243.306 258.811 248.605 229.348L248.889 229.689H236.711L236.995 229.451C233.504 248.963 230.411 266.19 228.194 278.573C227.057 284.759 226.158 289.728 225.522 293.185C225.215 294.891 224.964 296.21 224.794 297.154C224.703 297.586 224.646 297.927 224.589 298.188C224.532 298.45 224.51 298.416 224.51 298.416Z" fill="#263238"/>
<path d="M215.947 207.527C215.949 207.813 215.867 208.094 215.709 208.333C215.552 208.572 215.327 208.758 215.064 208.869C214.8 208.98 214.509 209.011 214.228 208.956C213.948 208.902 213.689 208.765 213.486 208.564C213.283 208.362 213.144 208.105 213.088 207.824C213.031 207.544 213.059 207.253 213.168 206.989C213.277 206.724 213.462 206.498 213.7 206.339C213.937 206.179 214.217 206.094 214.503 206.094C214.884 206.094 215.25 206.245 215.52 206.513C215.791 206.782 215.944 207.146 215.947 207.527V207.527Z" fill="#263238"/>
<path d="M221.564 208.96C222.356 208.96 222.997 208.318 222.997 207.527C222.997 206.736 222.356 206.094 221.564 206.094C220.773 206.094 220.132 206.736 220.132 207.527C220.132 208.318 220.773 208.96 221.564 208.96Z" fill="#263238"/>
<path d="M230.059 207.527C230.061 207.814 229.978 208.094 229.82 208.334C229.662 208.573 229.437 208.76 229.172 208.87C228.908 208.981 228.617 209.011 228.336 208.955C228.054 208.9 227.796 208.762 227.593 208.56C227.391 208.357 227.253 208.099 227.198 207.817C227.142 207.536 227.172 207.245 227.283 206.981C227.393 206.716 227.58 206.491 227.819 206.333C228.059 206.175 228.339 206.092 228.626 206.094C229.005 206.097 229.368 206.249 229.636 206.517C229.904 206.785 230.056 207.148 230.059 207.527Z" fill="#263238"/>
<path d="M204.815 298.416C204.815 298.416 204.815 298.12 204.94 297.54C205.065 296.96 205.179 296.051 205.361 294.959C205.759 292.685 206.316 289.353 207.01 285.271C208.465 276.925 210.478 265.326 212.786 252.09V251.851H225.59L225.522 252.204C222.008 271.148 218.881 287.954 216.936 298.461V298.609H216.8L207.896 298.507H205.622C205.365 298.523 205.107 298.523 204.849 298.507H205.076H205.69H208.056L216.845 298.404L216.664 298.552L225.021 252.261L225.306 252.602H213.07L213.355 252.363C210.955 265.497 208.806 277.004 207.351 285.271C206.577 289.376 205.963 292.685 205.52 295.004C205.315 296.142 205.145 297.006 205.02 297.643L204.883 298.336C204.862 298.364 204.839 298.39 204.815 298.416Z" fill="#263238"/>
<path d="M337.731 252.147H272.825L276.532 230.36H341.893L337.731 252.147Z" fill="#6952DC"/>
<path d="M272.825 252.147L271.563 259.754C271.563 259.754 280.091 251.851 279.955 251.851H272.882" fill="#6952DC"/>
<path d="M332.102 237.933C332.102 238.093 321.288 238.229 307.962 238.229C294.635 238.229 283.81 238.093 283.81 237.933C283.81 237.774 294.623 237.638 307.962 237.638C321.3 237.638 332.102 237.774 332.102 237.933Z" fill="#FAFAFA"/>
<path d="M331.465 243.198C331.465 243.357 320.652 243.494 307.325 243.494C293.998 243.494 283.173 243.357 283.173 243.198C283.173 243.039 293.987 242.902 307.325 242.902C320.663 242.902 331.465 243.028 331.465 243.198Z" fill="#FAFAFA"/>
<path d="M437.625 353.395H252.71V461.294H437.625V353.395Z" fill="#263238"/>
<path d="M336.946 353.395H252.71V461.294H336.946V353.395Z" fill="#455A64"/>
<path d="M328.327 390.044C328.327 390.044 328.327 389.85 328.327 389.498C328.327 389.145 328.327 388.599 328.327 387.929C328.327 386.53 328.327 384.517 328.27 381.936C328.27 376.751 328.213 369.28 328.156 360.07L328.372 360.286L260.612 360.365C260.351 360.638 260.965 360.013 260.908 360.081V367.881C260.908 370.463 260.908 373.01 260.908 375.511C260.908 380.526 260.908 385.393 260.908 390.044L260.635 389.771L309.201 389.896L323.29 389.975H327.065H328.054H328.395C328.293 389.986 328.19 389.986 328.088 389.975H327.133H323.415L309.394 390.055L260.635 390.191H260.351V389.907C260.351 385.256 260.351 380.39 260.351 375.375V360.081C260.283 360.081 260.908 359.512 260.647 359.774L328.327 359.819H328.543V360.024C328.543 369.291 328.452 376.796 328.429 382.027C328.429 384.585 328.429 386.575 328.372 387.963C328.372 388.611 328.372 389.1 328.372 389.498C328.371 389.681 328.355 389.863 328.327 390.044V390.044Z" fill="#263238"/>
<path d="M297.364 375.056C297.364 375.056 297.296 374.806 297.159 374.386C296.969 373.804 296.599 373.298 296.102 372.941C295.743 372.682 295.326 372.516 294.887 372.458C294.448 372.401 294.002 372.453 293.589 372.612C293.089 372.798 292.658 373.133 292.354 373.571C292.05 374.009 291.887 374.529 291.887 375.062C291.887 375.595 292.05 376.116 292.354 376.554C292.658 376.992 293.089 377.326 293.589 377.513C294.003 377.665 294.448 377.715 294.886 377.657C295.323 377.6 295.741 377.437 296.102 377.183C296.599 376.826 296.969 376.32 297.159 375.739C297.296 375.318 297.307 375.056 297.364 375.056C297.421 375.056 297.455 375.318 297.364 375.796C297.232 376.472 296.866 377.08 296.329 377.513C295.923 377.843 295.439 378.063 294.923 378.153C294.408 378.242 293.878 378.198 293.384 378.024C292.77 377.809 292.238 377.409 291.861 376.878C291.485 376.347 291.282 375.713 291.282 375.062C291.282 374.412 291.485 373.777 291.861 373.246C292.238 372.716 292.77 372.315 293.384 372.1C293.877 371.928 294.406 371.884 294.921 371.971C295.436 372.059 295.92 372.275 296.329 372.6C296.867 373.036 297.234 373.649 297.364 374.329C297.455 374.806 297.398 375.068 297.364 375.056Z" fill="#263238"/>
<path d="M328.327 423.042C328.327 423.042 328.327 422.849 328.327 422.496C328.327 422.144 328.327 421.587 328.327 420.916C328.327 419.517 328.327 417.505 328.27 414.935C328.27 409.738 328.213 402.279 328.157 393.068L328.373 393.284L260.613 393.364L260.908 393.068V400.857C260.908 403.439 260.908 405.974 260.908 408.487C260.908 413.502 260.908 418.357 260.908 423.019L260.635 422.735L309.201 422.872L323.29 422.951H327.065H328.054C328.168 422.942 328.282 422.942 328.395 422.951H328.088H327.133H323.415L309.394 423.031L260.635 423.167H260.351V422.883C260.351 418.221 260.351 413.365 260.351 408.351V393.091L260.647 392.795L328.407 392.875H328.623V393.091C328.623 402.358 328.532 409.863 328.509 415.083C328.509 417.641 328.509 419.631 328.452 421.03C328.452 421.678 328.452 422.167 328.452 422.553C328.421 422.719 328.379 422.882 328.327 423.042Z" fill="#263238"/>
<path d="M297.364 408.055C297.364 408.055 297.296 407.794 297.159 407.373C296.969 406.791 296.599 406.285 296.102 405.929C295.741 405.675 295.323 405.512 294.886 405.455C294.448 405.397 294.003 405.447 293.589 405.599C293.089 405.785 292.658 406.12 292.354 406.558C292.05 406.996 291.887 407.516 291.887 408.05C291.887 408.583 292.05 409.103 292.354 409.541C292.658 409.979 293.089 410.314 293.589 410.5C294.001 410.657 294.447 410.71 294.885 410.654C295.323 410.599 295.741 410.437 296.102 410.182C296.602 409.823 296.973 409.313 297.159 408.726C297.296 408.305 297.307 408.055 297.364 408.055C297.421 408.055 297.455 408.317 297.364 408.783C297.236 409.464 296.869 410.077 296.329 410.511C295.922 410.84 295.437 411.058 294.922 411.145C294.406 411.233 293.877 411.187 293.384 411.012C292.77 410.797 292.238 410.396 291.861 409.865C291.485 409.335 291.282 408.7 291.282 408.05C291.282 407.399 291.485 406.764 291.861 406.234C292.238 405.703 292.77 405.302 293.384 405.087C293.878 404.914 294.408 404.869 294.923 404.959C295.439 405.049 295.923 405.269 296.329 405.599C296.869 406.034 297.236 406.647 297.364 407.327C297.455 407.794 297.398 408.055 297.364 408.055Z" fill="#263238"/>
<path d="M328.327 456.03C328.327 456.03 328.327 455.836 328.327 455.484C328.327 455.131 328.327 454.585 328.327 453.915C328.327 452.516 328.327 450.503 328.27 447.922C328.27 442.737 328.213 435.266 328.156 426.056L328.372 426.272L260.612 426.351C260.351 426.624 260.965 425.999 260.908 426.067V433.867C260.908 436.449 260.908 438.996 260.908 441.497C260.908 446.512 260.908 451.379 260.908 456.03L260.635 455.757L309.201 455.882L323.29 455.961H327.065H328.054H328.395C328.293 455.972 328.19 455.972 328.088 455.961H327.133H323.415L309.394 456.03L260.635 456.166H260.351V455.882C260.351 451.231 260.351 446.364 260.351 441.35V426.067C260.283 426.124 260.908 425.498 260.647 425.76L328.407 425.851H328.623V426.056C328.623 435.323 328.532 442.839 328.509 448.059C328.509 450.617 328.509 452.607 328.452 453.994C328.452 454.654 328.452 455.131 328.452 455.529C328.422 455.699 328.38 455.866 328.327 456.03V456.03Z" fill="#263238"/>
<path d="M297.364 441.043C297.364 441.043 297.296 440.792 297.159 440.372C296.969 439.79 296.599 439.284 296.102 438.928C295.742 438.671 295.324 438.506 294.886 438.449C294.448 438.391 294.002 438.442 293.589 438.598C293.089 438.784 292.658 439.119 292.354 439.557C292.05 439.995 291.887 440.515 291.887 441.048C291.887 441.581 292.05 442.102 292.354 442.54C292.658 442.978 293.089 443.312 293.589 443.499C294.002 443.654 294.448 443.705 294.886 443.648C295.324 443.59 295.742 443.426 296.102 443.169C296.599 442.812 296.969 442.306 297.159 441.725C297.296 441.304 297.307 441.043 297.364 441.043C297.421 441.043 297.455 441.304 297.364 441.782C297.231 442.461 296.865 443.072 296.329 443.51C295.92 443.835 295.436 444.052 294.921 444.139C294.406 444.227 293.877 444.183 293.384 444.01C292.77 443.795 292.238 443.395 291.861 442.864C291.485 442.334 291.282 441.699 291.282 441.048C291.282 440.398 291.485 439.763 291.861 439.232C292.238 438.702 292.77 438.301 293.384 438.086C293.877 437.914 294.406 437.87 294.921 437.957C295.436 438.045 295.92 438.261 296.329 438.586C296.867 439.022 297.234 439.635 297.364 440.315C297.455 440.792 297.398 441.054 297.364 441.043Z" fill="#263238"/>
<path d="M161.514 353.395H5.96979V461.294H161.514V353.395Z" fill="#263238"/>
<path d="M444.323 345.867H0V356.124H444.323V345.867Z" fill="#263238"/>
<path d="M19.7515 356.124H5.96979V461.294H19.7515V356.124Z" fill="#455A64"/>
<path d="M178.718 183.568C178.627 183.137 178.562 182.7 178.525 182.261C178.36 181.092 177.974 179.965 177.388 178.94C177.008 178.254 176.43 177.699 175.728 177.348C175.332 177.179 174.895 177.13 174.472 177.209C174.049 177.288 173.659 177.491 173.351 177.792C172.034 179.427 171.316 181.463 171.316 183.563C171.316 185.662 172.034 187.699 173.351 189.334C173.658 189.637 174.047 189.842 174.47 189.923C174.894 190.004 175.331 189.957 175.728 189.788C176.428 189.43 177.006 188.872 177.388 188.185C177.974 187.16 178.36 186.033 178.525 184.865C178.562 184.429 178.626 183.996 178.718 183.568C178.792 184.009 178.792 184.458 178.718 184.899C178.642 186.123 178.305 187.318 177.729 188.401C177.318 189.182 176.68 189.821 175.898 190.232C175.435 190.454 174.916 190.529 174.409 190.448C173.879 190.344 173.386 190.105 172.976 189.754C171.508 188.027 170.702 185.835 170.702 183.568C170.702 181.302 171.508 179.109 172.976 177.383C173.382 177.024 173.877 176.781 174.409 176.678C174.916 176.602 175.434 176.677 175.898 176.894C176.68 177.305 177.318 177.943 177.729 178.724C178.307 179.811 178.644 181.009 178.718 182.238C178.791 182.678 178.791 183.128 178.718 183.568V183.568Z" fill="#263238"/>
<path d="M129.63 161.338L126.218 229.473L155.487 232.225L157.102 215.68C157.102 215.68 167.336 218.227 170.52 208.71C172.51 202.626 174.284 154.993 174.284 154.993L129.63 161.338Z" fill="#FFBE9D"/>
<path d="M180.504 162.02C178.013 167.945 168.621 173.027 168.621 173.027L167.086 188.117C165.689 188.02 164.287 188.02 162.89 188.117C163.64 181.033 154.532 182.431 153.6 187.241C152.713 191.881 158 194.985 158 194.985C154.35 200.579 152.872 203.536 147.687 208.778C142.092 214.463 139.079 214.918 133.291 214.748L126.912 214.452C126.912 214.452 124.638 209.005 122.989 196.145C122.182 189.959 117.304 181.851 118.725 171.788C122.637 143.213 154.259 148.284 154.259 148.284C166.131 139.051 186.371 148.091 180.504 162.02Z" fill="#263238"/>
<path d="M178.718 183.648C176.56 184.064 174.367 184.277 172.169 184.285C169.982 184.479 167.783 184.479 165.596 184.285C167.752 183.876 169.941 183.666 172.135 183.659C174.325 183.465 176.528 183.461 178.718 183.648Z" fill="#263238"/>
<path d="M271.961 263.689L261.329 270.272L257.429 279.369V271.41C257.429 271.41 260.317 267.998 262.682 265.508C265.047 263.018 263.353 261.289 262.682 260.437C262.011 259.584 251.834 271.41 251.834 271.41V278.232C247.092 272.399 244.898 274.4 244.17 275.458C243.442 276.515 251.834 284.429 251.834 284.429V286.84L210.137 309.264L199.164 281.973L176.751 293.742L190.135 326.138C191.058 328.38 192.452 330.396 194.223 332.051C195.994 333.706 198.1 334.96 200.398 335.729C202.697 336.498 205.134 336.764 207.544 336.508C209.954 336.252 212.281 335.48 214.367 334.246L263.433 305.238L266.696 299.792C267.829 297.915 268.496 295.793 268.641 293.606L270.335 269.101C273.314 267.236 271.961 263.689 271.961 263.689Z" fill="#FFBE9D"/>
<path d="M210.341 309.298C209.351 313.135 207.971 316.861 206.225 320.419C207.229 316.586 208.608 312.861 210.341 309.298V309.298Z" fill="#EB996E"/>
<path d="M270.335 269.101C269.707 269.425 269.061 269.713 268.402 269.965C267.649 270.322 266.978 270.829 266.428 271.455C265.879 272.08 265.463 272.812 265.207 273.604C264.357 275.894 263.322 278.111 262.114 280.234C262.78 277.895 263.632 275.614 264.661 273.411C264.993 272.48 265.52 271.631 266.207 270.921C266.796 270.373 267.478 269.934 268.22 269.624C268.876 269.291 269.599 269.112 270.335 269.101V269.101Z" fill="#EB996E"/>
<path d="M270.176 272.979C269.991 273.004 269.815 273.07 269.659 273.172C269.504 273.274 269.373 273.41 269.277 273.57C268.948 274.207 268.527 275.208 268.14 276.276C267.713 277.629 267.212 278.958 266.639 280.256C266.641 278.805 266.963 277.372 267.583 276.06C267.95 275.103 268.419 274.188 268.982 273.331C269.085 273.189 269.217 273.07 269.37 272.984C269.523 272.897 269.693 272.845 269.869 272.831C270.085 272.831 270.187 272.945 270.176 272.979Z" fill="#EB996E"/>
<path d="M170.054 289.592L174.818 305.727L205.054 292.082C203.917 288.671 198.959 273.65 189.396 249.771C186.777 243.223 182.518 237.46 177.027 233.035C171.537 228.61 165 225.672 158.046 224.504C148.153 222.855 137.385 221.57 129.095 221.673C120.866 221.749 112.911 224.648 106.562 229.884C100.212 235.12 95.8516 242.377 94.209 250.441C91.6505 263.12 96.1307 271.501 93.2425 299.246L92.3214 369.03L173.056 371.998L170.054 289.592Z" fill="#6952DC"/>
<path d="M96.9949 298.507C96.9949 298.507 85.7717 299.166 81.3597 290.672C81.3597 290.672 93.4471 245.984 97.6658 240.719L96.9949 298.507Z" fill="#6952DC"/>
<path d="M190.92 254.273C190.631 254.497 190.308 254.673 189.964 254.797C188.975 255.156 187.935 255.351 186.883 255.376C185.23 255.368 183.584 255.158 181.982 254.751C180.117 254.33 178.036 253.705 175.705 253.318C174.49 253.172 173.267 253.107 172.044 253.125C170.72 253.23 169.408 253.447 168.121 253.773C165.266 254.549 162.524 255.696 159.968 257.184C157.204 258.685 154.396 260.459 151.405 262.21C148.337 264.115 145.049 265.642 141.615 266.759C138.086 267.852 134.317 267.911 130.755 266.929C127.525 265.884 124.515 264.254 121.875 262.119C119.339 260.152 117.133 258.083 115.052 256.195C113.154 254.426 111.141 252.785 109.025 251.283C106.014 249.032 102.503 247.542 98.7915 246.939C97.4205 246.862 96.0462 246.862 94.6752 246.939C95.0105 246.803 95.3622 246.711 95.7213 246.666C96.7513 246.502 97.7962 246.453 98.837 246.518C102.67 246.963 106.326 248.38 109.458 250.635C111.642 252.109 113.717 253.739 115.666 255.513C117.781 257.378 120.01 259.402 122.489 261.289C125.037 263.309 127.931 264.849 131.028 265.838C134.389 266.743 137.938 266.676 141.262 265.644C144.602 264.553 147.804 263.076 150.803 261.244C153.77 259.527 156.602 257.753 159.422 256.252C162.074 254.745 164.915 253.598 167.87 252.841C169.222 252.517 170.6 252.312 171.987 252.227C173.269 252.24 174.549 252.339 175.819 252.522C178.23 252.977 180.288 253.659 182.118 254.137C183.663 254.582 185.254 254.849 186.86 254.933C188.239 254.925 189.609 254.703 190.92 254.273V254.273Z" fill="#263238"/>
<path d="M170.588 309.957C169.047 309.039 167.345 308.422 165.574 308.138C163.644 307.91 161.69 308.018 159.797 308.456C157.637 308.888 155.306 309.673 152.747 310.31C148.357 311.439 143.76 311.501 139.341 310.492C135.929 309.696 134.099 308.616 134.155 308.502C134.212 308.388 136.191 309.105 139.511 309.639C143.817 310.372 148.228 310.198 152.463 309.127C154.953 308.502 157.33 307.74 159.592 307.342C161.609 306.934 163.685 306.911 165.71 307.274C167.081 307.518 168.384 308.053 169.531 308.843C170.327 309.468 170.645 309.912 170.588 309.957Z" fill="#263238"/>
<path d="M171.407 351.621C171.407 351.621 171.1 352.133 170.338 352.849C169.238 353.855 168.006 354.708 166.677 355.385C164.682 356.42 162.476 356.98 160.229 357.022C157.487 356.947 154.784 356.345 152.269 355.248C149.62 354.213 147.198 353.054 144.912 352.405C142.892 351.788 140.777 351.542 138.67 351.678C137.262 351.762 135.889 352.15 134.644 352.815C133.757 353.304 133.348 353.702 133.269 353.622C133.189 353.543 133.541 353.065 134.406 352.485C135.638 351.592 137.079 351.028 138.59 350.848C140.808 350.589 143.056 350.762 145.208 351.359C147.76 352.152 150.265 353.086 152.713 354.157C155.084 355.194 157.622 355.799 160.206 355.942C162.305 355.951 164.38 355.505 166.29 354.634C169.644 353.122 171.293 351.45 171.407 351.621Z" fill="#263238"/>
<g opacity="0.3">
<path opacity="0.3" d="M83.85 299.291C94.4251 301.452 105.284 299.291 116.053 298.632C122.591 298.245 129.834 297.495 134.997 301.554C139.09 304.738 140.682 310.094 141.922 315.143C146.47 334.405 147.255 351.609 148.267 371.361L95.9602 370.224L83.85 299.291Z" fill="black"/>
</g>
<path opacity="0.3" d="M97.6658 263.029L99.9286 295.641H93.0378L97.6658 263.029Z" fill="black"/>
<path d="M112.357 368.984L216.175 372.657C224.276 372.942 231.943 376.394 237.526 382.271C243.11 388.148 246.165 395.981 246.035 404.087L245.125 463H207.055L204.599 412.206L112.357 409.772V368.984Z" fill="#263238"/>
<path d="M147.175 422.849H136.964V460.225H147.175V422.849Z" fill="#455A64"/>
<path d="M51.2834 304.101V394.16C51.2864 399.831 53.5412 405.268 57.5521 409.277C61.5629 413.285 67.0016 415.537 72.6723 415.537H132.643V304.101C132.64 301.573 131.634 299.149 129.845 297.363C128.056 295.576 125.631 294.572 123.103 294.572H60.8123C58.2851 294.572 55.8614 295.576 54.0743 297.363C52.2873 299.15 51.2834 301.574 51.2834 304.101V304.101Z" fill="#455A64"/>
<path d="M213.355 422.849H67.3051C67.3232 418.639 69.0083 414.607 71.9919 411.636C74.9754 408.666 79.0142 406.998 83.2246 406.998H197.56C201.764 406.998 205.796 408.668 208.769 411.64C211.741 414.613 213.411 418.645 213.411 422.849H213.355Z" fill="#455A64"/>
<path d="M132.643 404.894C132.709 405.784 132.633 406.678 132.416 407.544C131.926 409.571 130.859 411.413 129.343 412.846C127.827 414.279 125.928 415.242 123.876 415.617C122.948 415.768 122.008 415.832 121.067 415.81H118.122H105H81.1209L73.9003 415.719H71.9331C71.7037 415.726 71.4743 415.704 71.2509 415.651C71.4765 415.615 71.7046 415.596 71.9331 415.594L73.9003 415.537L81.1209 415.435L105 415.321H121.067C121.98 415.356 122.894 415.303 123.796 415.162C125.393 414.886 126.901 414.236 128.197 413.263C130.12 411.842 131.51 409.815 132.143 407.509C132.62 405.849 132.563 404.883 132.643 404.894Z" fill="#263238"/>
<path d="M151.019 423.156C148.046 423.456 145.056 423.554 142.07 423.452C139.08 423.555 136.086 423.456 133.109 423.156C136.086 422.863 139.08 422.764 142.07 422.86C145.056 422.764 148.045 422.863 151.019 423.156V423.156Z" fill="#263238"/>
<path d="M195.457 416.333C195.315 415.968 195.224 415.586 195.184 415.196C195.036 414.457 194.843 413.388 194.615 412.001C194.149 409.215 193.478 405.178 192.75 400.221C192.341 397.742 192.011 394.979 191.465 392.102C191.318 391.385 191.181 390.658 191.033 389.907C190.885 389.157 190.601 388.452 190.385 387.701C190.271 387.337 190.169 386.951 190.055 386.564C189.942 386.177 189.771 385.825 189.623 385.427C189.316 384.676 189.043 383.915 188.714 383.153C187.27 380.039 185.444 377.117 183.278 374.454C180.913 371.625 178.161 369.145 175.102 367.085C172.058 365.002 168.714 363.391 165.187 362.31C161.913 361.27 158.511 360.689 155.078 360.581C148.46 360.433 142.433 360.467 137.408 360.399C132.382 360.331 128.311 360.274 125.491 360.206C124.081 360.206 122.989 360.138 122.239 360.092C121.856 360.104 121.474 360.066 121.101 359.979C121.473 359.883 121.855 359.841 122.239 359.853L125.491 359.74C128.299 359.671 132.382 359.615 137.408 359.558C142.433 359.501 148.426 359.399 155.112 359.49C158.652 359.565 162.163 360.143 165.539 361.207C169.185 362.298 172.638 363.951 175.773 366.107C178.932 368.222 181.767 370.784 184.188 373.715C186.404 376.468 188.265 379.49 189.726 382.709C190.055 383.482 190.328 384.278 190.635 385.04C190.772 385.427 190.92 385.802 191.067 386.177C191.215 386.553 191.283 386.951 191.397 387.314C191.613 388.088 191.818 388.838 192.023 389.589C192.227 390.339 192.307 391.101 192.443 391.863C192.955 394.808 193.228 397.548 193.58 400.027C194.229 405.019 194.717 409.067 195.07 411.864C195.229 413.263 195.354 414.355 195.422 415.094C195.496 415.503 195.508 415.921 195.457 416.333V416.333Z" fill="#455A64"/>
<path d="M11.1549 307.353C11.1549 307.353 9.31281 312.505 12.8378 316.234H20.1721C20.1721 316.234 19.524 307.911 11.1549 307.353Z" fill="#EE4248"/>
<path opacity="0.4" d="M11.1549 307.353C11.1549 307.353 9.31281 312.505 12.8378 316.234H20.1721C20.1721 316.234 19.524 307.911 11.1549 307.353Z" fill="#6952DC"/>
<path d="M23.6517 296.744C23.3447 296.38 17.0679 306.205 20.5929 316.234H27.5065C27.5065 316.234 30.2128 304.567 23.6517 296.744Z" fill="#6952DC"/>
<path d="M35.8983 307.353C33.6382 307.505 31.5187 308.504 29.963 310.15C28.4073 311.797 27.53 313.969 27.5064 316.234H34.4087C34.4087 316.234 37.4334 311.981 35.8983 307.353Z" fill="#6952DC"/>
<path d="M12.2693 315.848C9.88486 317.559 8.03552 319.913 6.93641 322.634C5.8373 325.356 5.53361 328.334 6.06068 331.221C7.83456 341.455 18.637 345.867 18.637 345.867H30.6107C30.6107 345.867 42.8005 340.489 42.5048 329.425C42.2092 318.361 34.9545 316.007 34.9545 316.007L12.2693 315.848Z" fill="#455A64"/>
<path d="M42.4593 328.185C42.1882 327.728 41.8553 327.311 41.4701 326.946C40.9133 326.501 40.2737 326.172 39.5885 325.977C38.9034 325.781 38.1863 325.724 37.4788 325.809C35.3612 326.21 33.3602 327.08 31.6228 328.356C30.5191 329.061 29.3501 329.659 28.1318 330.141C26.7877 330.652 25.3319 330.797 23.9132 330.562C20.9908 330.061 18.6598 328.492 16.4765 327.446C14.6189 326.362 12.4836 325.848 10.3362 325.968C8.90055 326.117 7.57136 326.793 6.6065 327.867C6.28408 328.29 6.0095 328.748 5.78778 329.231C5.79538 329.088 5.82215 328.947 5.86738 328.811C5.98522 328.402 6.1738 328.017 6.42456 327.673C7.37804 326.477 8.76157 325.702 10.2793 325.513C12.537 325.315 14.8008 325.819 16.7608 326.957C19.035 328.003 21.3092 329.516 24.0497 329.97C25.3711 330.197 26.7293 330.068 27.984 329.595C29.173 329.132 30.3152 328.557 31.3953 327.878C33.2087 326.591 35.2943 325.739 37.4902 325.388C38.2477 325.314 39.0122 325.399 39.7348 325.638C40.4574 325.877 41.1221 326.264 41.6861 326.775C41.9795 327.063 42.2184 327.402 42.3911 327.776C42.448 328.037 42.4821 328.174 42.4593 328.185Z" fill="#263238"/>
<path d="M42.6299 330.857C42.3571 330.408 42.0285 329.996 41.652 329.629C41.1037 329.182 40.4702 328.85 39.7901 328.655C39.1099 328.46 38.3971 328.404 37.6949 328.492C35.6006 328.895 33.623 329.761 31.9071 331.028C30.832 331.738 29.6894 332.34 28.4957 332.825C27.1638 333.337 25.7185 333.483 24.3112 333.245C21.4116 332.745 19.1033 331.176 16.9428 330.13C15.1137 329.047 13.0041 328.533 10.882 328.651C9.45566 328.807 8.1383 329.488 7.18645 330.562C6.8689 330.98 6.60174 331.434 6.39047 331.915C6.39047 331.915 6.39047 331.767 6.4587 331.494C6.58172 331.107 6.76599 330.742 7.0045 330.414C7.94269 329.221 9.30951 328.442 10.8138 328.242C13.0335 328.04 15.2613 328.529 17.1929 329.641C19.3989 330.687 21.7414 332.199 24.4022 332.654C25.7086 332.881 27.0521 332.751 28.2911 332.279C29.4625 331.817 30.586 331.242 31.6455 330.562C33.4376 329.274 35.5048 328.422 37.6835 328.071C38.4249 328.005 39.1719 328.094 39.8768 328.333C40.5817 328.572 41.229 328.955 41.7771 329.459C42.0653 329.745 42.3002 330.08 42.4707 330.448C42.5461 330.575 42.5999 330.713 42.6299 330.857Z" fill="#263238"/>
<path d="M11.5529 330.789C11.5529 330.721 11.8713 330.516 12.292 330.857C12.4192 330.967 12.5101 331.113 12.5527 331.275C12.5953 331.438 12.5877 331.609 12.5308 331.767C12.4609 331.962 12.3297 332.128 12.1569 332.242C11.9841 332.355 11.7792 332.41 11.5728 332.397C11.3664 332.384 11.1698 332.305 11.0124 332.171C10.855 332.037 10.7455 331.855 10.7001 331.653C10.6601 331.497 10.6634 331.334 10.7094 331.179C10.7555 331.025 10.8427 330.886 10.9616 330.778C11.371 330.437 11.7235 330.596 11.7008 330.664C11.678 330.732 11.4506 330.789 11.28 331.062C11.2432 331.13 11.2239 331.206 11.2239 331.284C11.2239 331.361 11.2432 331.437 11.28 331.505C11.3133 331.585 11.3663 331.655 11.4339 331.709C11.5015 331.762 11.5815 331.798 11.6666 331.812C11.7506 331.809 11.8324 331.785 11.9041 331.741C11.9758 331.697 12.035 331.636 12.076 331.562C12.1141 331.499 12.1342 331.426 12.1342 331.352C12.1342 331.278 12.1141 331.205 12.076 331.142C11.8258 330.88 11.5643 330.869 11.5529 330.789Z" fill="#263238"/>
<path d="M25.1186 326.468C25.1186 326.4 25.437 326.184 25.8691 326.536C25.9917 326.649 26.0786 326.795 26.119 326.957C26.1594 327.119 26.1516 327.289 26.0965 327.446C26.0247 327.639 25.8937 327.805 25.7222 327.919C25.5506 328.034 25.3473 328.091 25.1413 328.083C24.9358 328.063 24.7413 327.981 24.5846 327.846C24.4278 327.712 24.3165 327.532 24.2658 327.332C24.2245 327.175 24.2282 327.01 24.2765 326.855C24.3247 326.7 24.4156 326.562 24.5387 326.457C24.948 326.116 25.3005 326.275 25.2664 326.343C25.2323 326.411 25.0162 326.468 24.8457 326.741C24.8116 326.81 24.7939 326.886 24.7939 326.963C24.7939 327.04 24.8116 327.116 24.8457 327.184C24.879 327.264 24.9319 327.334 24.9995 327.388C25.0671 327.441 25.1472 327.477 25.2323 327.492C25.3165 327.49 25.3988 327.465 25.4707 327.422C25.5426 327.378 25.6016 327.315 25.6417 327.241C25.681 327.178 25.7018 327.105 25.7018 327.031C25.7018 326.957 25.681 326.884 25.6417 326.821C25.3915 326.559 25.13 326.548 25.1186 326.468Z" fill="#263238"/>
<path d="M38.2748 330.982C38.2748 330.914 38.5932 330.71 39.0253 331.051C39.148 331.163 39.2348 331.31 39.2753 331.471C39.3157 331.633 39.3078 331.803 39.2527 331.96C39.181 332.154 39.05 332.319 38.8784 332.434C38.7069 332.548 38.5036 332.605 38.2976 332.597C38.0935 332.578 37.9001 332.497 37.7435 332.365C37.5869 332.233 37.4747 332.056 37.422 331.858C37.3812 331.699 37.385 331.533 37.4332 331.376C37.4814 331.219 37.572 331.079 37.6949 330.971C38.1043 330.63 38.4568 330.789 38.4227 330.857C38.3885 330.926 38.1725 330.994 38.0019 331.255C37.9541 331.323 37.9245 331.401 37.9161 331.483C37.9077 331.566 37.9208 331.648 37.954 331.724C37.9872 331.8 38.0395 331.865 38.1057 331.915C38.1719 331.964 38.2497 331.996 38.3317 332.006C38.4159 332.004 38.4982 331.98 38.57 331.936C38.6419 331.892 38.7009 331.83 38.741 331.756C38.7803 331.693 38.8012 331.62 38.8012 331.545C38.8012 331.471 38.7803 331.398 38.741 331.335C38.5477 331.085 38.2976 331.062 38.2748 330.982Z" fill="#263238"/>
<path d="M384.409 305.409L388.309 345.867H408.026L412.745 305.409H384.409Z" fill="#455A64"/>
<path d="M384.409 300.178C383.195 301.694 382.541 303.581 382.555 305.523H414.599C414.755 304.548 414.667 303.55 414.344 302.618C414.02 301.685 413.471 300.847 412.745 300.178H384.409Z" fill="#263238"/>
<path d="M388.059 296.471L386.979 300.474L411.165 300.656L409.562 296.426L388.059 296.471Z" fill="#263238"/>
<path d="M384.045 315.541C384.045 315.916 386.319 335.94 386.319 335.94H410.414L412.689 315.575L384.045 315.541Z" fill="#6952DC"/>
</svg>
